<svg width="140" height="43" viewBox="0 0 140 43" fill="none" xmlns="http://www.w3.org/2000/svg">
<path d="M22.062 5.85156V7.38965H20.1211V5.85156H22.062ZM22.062 8.63477V16.3252H20.1211V8.63477H22.062ZM23.9004 16.3252V8.63477H25.4019L25.6436 9.7627C26.3809 9.01074 27.2207 8.63477 28.1631 8.63477C29.9844 8.63477 30.895 9.58203 30.895 11.4766V16.3252H28.9541V11.4766C28.9541 10.627 28.5317 10.2021 27.687 10.2021C27.0571 10.2021 26.4419 10.4536 25.8413 10.9565V16.3252H23.9004ZM32.7334 16.3252V8.63477C32.7334 6.52539 33.8857 5.4707 36.1904 5.4707C36.8203 5.4707 37.3916 5.56836 37.9043 5.76367V7.30176C37.4209 7.10645 36.896 7.00879 36.3296 7.00879C35.2261 7.00879 34.6743 7.55078 34.6743 8.63477H36.9814V10.1729H34.6743V16.3252H32.7334ZM39.7427 12.4507C39.7427 14.0571 40.3652 14.8604 41.6104 14.8604C42.8555 14.8604 43.478 14.0571 43.478 12.4507C43.478 10.8833 42.8555 10.0996 41.6104 10.0996C40.3652 10.0996 39.7427 10.8833 39.7427 12.4507ZM37.8018 12.48C37.8018 9.90186 39.0713 8.61279 41.6104 8.61279C44.1494 8.61279 45.4189 9.90186 45.4189 12.48C45.4189 15.0532 44.1494 16.3398 41.6104 16.3398C39.0811 16.3398 37.8115 15.0532 37.8018 12.48ZM57.2476 15.4609C57.2476 15.7441 57.4429 15.8857 57.8335 15.8857C58.5415 15.8857 58.8955 14.7139 58.8955 12.3701C58.8955 9.00098 57.2207 7.31641 53.8711 7.31641C50.3848 7.31641 48.6416 9.00098 48.6416 12.3701C48.6416 15.8369 50.2163 17.5703 53.3657 17.5703V19.1084C48.9224 19.1084 46.7007 16.8623 46.7007 12.3701C46.7007 7.97559 49.0542 5.77832 53.7612 5.77832C58.478 5.77832 60.8364 7.97559 60.8364 12.3701C60.8364 15.7393 59.7451 17.4238 57.5625 17.4238C56.1904 17.4238 55.48 16.8281 55.4312 15.6367C54.7622 16.0957 54.0249 16.3252 53.2192 16.3252C51.3394 16.3252 50.3994 15.5269 50.3994 13.9302C50.3994 12.4019 51.5127 11.6377 53.7393 11.6377C54.2617 11.6377 54.7842 11.6865 55.3066 11.7842V11.2056C55.3066 10.5171 54.811 10.1729 53.8198 10.1729C52.98 10.1729 52.0474 10.2949 51.022 10.5391V9.00098C52.0474 8.75684 52.98 8.63477 53.8198 8.63477C56.105 8.63477 57.2476 9.47949 57.2476 11.1689V15.4609ZM55.3066 13.1025C54.8184 13.0049 54.2959 12.9561 53.7393 12.9561C52.8066 12.9561 52.3403 13.2734 52.3403 13.9082C52.3403 14.5918 52.731 14.9336 53.5122 14.9336C54.1567 14.9336 54.7549 14.7334 55.3066 14.333V13.1025ZM67.355 10.6416C66.9546 10.3779 66.4517 10.2461 65.8462 10.2461C64.6401 10.2461 64.0371 10.9224 64.0371 12.2749C64.0371 13.8813 64.6646 14.6846 65.9194 14.6846C66.4272 14.6846 66.9058 14.6138 67.355 14.4722V10.6416ZM69.2959 15.8638C68.1191 16.1714 66.9692 16.3252 65.8462 16.3252C63.3608 16.3252 62.1182 14.9922 62.1182 12.3262C62.1182 9.86523 63.334 8.63477 65.7656 8.63477C66.2832 8.63477 66.813 8.75684 67.355 9.00098V5.85156H69.2959V15.8638ZM73.0679 5.85156V7.38965H71.127V5.85156H73.0679ZM73.0679 8.63477V16.3252H71.127V8.63477H73.0679ZM74.8696 8.63477H80.8022V10.1729L76.8691 14.8604H80.6558V16.3252H74.7231V14.8604L78.7148 10.1729H74.8696V8.63477ZM82.1572 16.3252V8.63477H83.6587L83.9004 9.61621C84.5742 8.96191 85.2871 8.63477 86.0391 8.63477V10.2021C85.3164 10.2021 84.6694 10.5024 84.0981 11.103V16.3252H82.1572ZM90.3823 8.63477C92.7163 8.63477 93.8833 9.82617 93.8833 12.209C93.8833 12.5264 93.8613 12.8438 93.8174 13.1611H88.7124C88.7124 14.2451 89.5083 14.7871 91.1001 14.7871C91.8765 14.7871 92.6528 14.7139 93.4292 14.5674V16.1055C92.7505 16.252 91.9253 16.3252 90.9536 16.3252C88.1655 16.3252 86.7715 15.0142 86.7715 12.3921C86.7715 9.88721 87.9751 8.63477 90.3823 8.63477ZM88.7124 11.8135H91.9937V11.7549C91.9937 10.6904 91.4565 10.1582 90.3823 10.1582C89.3569 10.1582 88.8003 10.71 88.7124 11.8135ZM95.3408 16.3252V8.63477H96.8423L97.084 9.7627C97.8213 9.01074 98.6611 8.63477 99.6035 8.63477C101.425 8.63477 102.335 9.58203 102.335 11.4766V16.3252H100.395V11.4766C100.395 10.627 99.9722 10.2021 99.1274 10.2021C98.4976 10.2021 97.8823 10.4536 97.2817 10.9565V16.3252H95.3408ZM104.064 7.38965H105.5L105.792 8.63477H107.726V10.1729H106.005V13.7104C106.005 14.4282 106.315 14.7871 106.935 14.7871H107.726V16.3252H105.998C104.708 16.3252 104.064 15.6343 104.064 14.2524V7.38965ZM108.686 13.9302C108.686 12.4019 109.799 11.6377 112.025 11.6377C112.548 11.6377 113.07 11.6865 113.593 11.7842V11.2056C113.593 10.5171 113.097 10.1729 112.106 10.1729C111.266 10.1729 110.333 10.2949 109.308 10.5391V9.00098C110.333 8.75684 111.266 8.63477 112.106 8.63477C114.391 8.63477 115.534 9.47949 115.534 11.1689V16.3252H114.406L113.717 15.6367C113.048 16.0957 112.311 16.3252 111.505 16.3252C109.625 16.3252 108.686 15.5269 108.686 13.9302ZM113.593 13.1025C113.104 13.0049 112.582 12.9561 112.025 12.9561C111.093 12.9561 110.626 13.2734 110.626 13.9082C110.626 14.5918 111.017 14.9336 111.798 14.9336C112.443 14.9336 113.041 14.7334 113.593 14.333V13.1025ZM119.313 5.85156V16.3252H117.372V5.85156H119.313ZM122.909 14.5308V16.3252H120.968V14.5308H122.909ZM124.564 16.3252V8.63477H126.066L126.308 9.61621C126.981 8.96191 127.694 8.63477 128.446 8.63477V10.2021C127.724 10.2021 127.077 10.5024 126.505 11.103V16.3252H124.564ZM136.466 8.63477V16.3252H134.95L134.716 15.3438C133.832 15.998 132.895 16.3252 131.903 16.3252C130.331 16.3252 129.545 15.395 129.545 13.5347V8.63477H131.486V13.4834C131.486 14.333 131.857 14.7578 132.599 14.7578C133.229 14.7578 133.871 14.5063 134.525 14.0034V8.63477H136.466Z" fill="#A6A6A6"/>
<path d="M9.13339 7.08887H1.98552C0.889513 7.08887 0 7.95467 0 9.02145V12.8866C0 13.9534 0.889513 14.8192 1.98552 14.8192H9.13339C10.2294 14.8192 11.1189 13.9534 11.1189 12.8866V9.02145C11.1189 7.95467 10.2294 7.08887 9.13339 7.08887ZM9.38754 13.134C9.30812 13.2074 9.20884 13.2461 9.1056 13.2461C9.00235 13.2461 8.90307 13.2074 8.82365 13.134L7.14787 11.499L6.40132 12.2295C6.16703 12.4537 5.86523 12.5658 5.55946 12.5658C5.25369 12.5658 4.95189 12.4537 4.7176 12.2295L3.97104 11.499L2.29526 13.134C2.21584 13.2074 2.11656 13.2461 2.01332 13.2461C1.91007 13.2461 1.81079 13.2074 1.73137 13.134C1.5765 12.9832 1.5765 12.7359 1.73137 12.5851L3.41112 10.954L1.98155 9.56644C1.82668 9.4157 1.82668 9.16833 1.98155 9.01759C2.13642 8.86684 2.39057 8.86684 2.54544 9.01759L5.28148 11.6807C5.43635 11.8314 5.68256 11.8314 5.83743 11.6807L8.57348 9.01759C8.72835 8.86684 8.98249 8.86684 9.13736 9.01759C9.29224 9.16833 9.29224 9.4157 9.13736 9.56644L7.70779 10.954L9.38754 12.5851C9.54241 12.7359 9.54241 12.9832 9.38754 13.134Z" fill="url(#paint0_linear_6176_92)"/>
<defs>
<linearGradient id="paint0_linear_6176_92" x1="2.76141e-08" y1="12.4035" x2="9.60089" y2="6.64955" gradientUnits="userSpaceOnUse">
<stop stop-color="#9F7437"/>
<stop offset="1" stop-color="#E3D293"/>
</linearGradient>
</defs>
</svg>
