<svg width="342" height="22" viewBox="0 0 342 22" fill="none" xmlns="http://www.w3.org/2000/svg">
<path d="M94.6025 5.52539V12.9814C94.6025 14.9932 93.2231 15.999 90.4644 15.999V14.3145C91.9292 14.3145 92.6616 13.8701 92.6616 12.9814V5.52539H94.6025ZM98.3745 14.2046V15.999H96.4336V14.2046H98.3745ZM100.213 15.999V5.52539H102.227L105.779 13.4722L109.258 5.52539H111.199V15.999H109.405V8.7041L106.563 15.999H104.908L102.007 8.7041V15.999H100.213ZM112.847 13.604C112.847 12.0757 113.96 11.3115 116.187 11.3115C116.709 11.3115 117.232 11.3604 117.754 11.458V10.8794C117.754 10.1909 117.259 9.84668 116.268 9.84668C115.428 9.84668 114.495 9.96875 113.47 10.2129V8.6748C114.495 8.43066 115.428 8.30859 116.268 8.30859C118.553 8.30859 119.695 9.15332 119.695 10.8428V15.999H118.567L117.879 15.3105C117.21 15.7695 116.473 15.999 115.667 15.999C113.787 15.999 112.847 15.2007 112.847 13.604ZM117.754 12.7764C117.266 12.6787 116.744 12.6299 116.187 12.6299C115.254 12.6299 114.788 12.9473 114.788 13.582C114.788 14.2656 115.179 14.6074 115.96 14.6074C116.604 14.6074 117.203 14.4072 117.754 14.0068V12.7764ZM121.534 15.6328V14.0215C122.388 14.3633 123.375 14.5342 124.493 14.5342C125.328 14.5342 125.745 14.2656 125.745 13.7285C125.745 13.2158 125.464 12.9595 124.903 12.9595H123.511C121.949 12.9595 121.167 12.1904 121.167 10.6523C121.167 9.04102 122.308 8.23535 124.588 8.23535C125.555 8.23535 126.465 8.38184 127.32 8.6748V10.2861C126.465 9.94434 125.538 9.77344 124.537 9.77344C123.487 9.77344 122.962 10.042 122.962 10.5791C122.962 11.0918 123.267 11.3481 123.877 11.3481H125.123C126.832 11.3481 127.686 12.1172 127.686 13.6553C127.686 15.2666 126.597 16.0723 124.419 16.0723C123.35 16.0723 122.388 15.9258 121.534 15.6328ZM129.048 15.999V5.52539H130.989V8.90918C131.785 8.50879 132.623 8.30859 133.501 8.30859C135.464 8.30859 136.446 9.04834 136.446 10.5278C136.446 11.6021 135.762 12.4419 134.395 13.0474L136.783 15.999H134.41L132.403 13.2524V12.3516C133.804 12.0537 134.505 11.5654 134.505 10.8867C134.505 10.1934 134.041 9.84668 133.113 9.84668C132.464 9.84668 131.756 10.0518 130.989 10.4619V15.999H129.048ZM136.966 8.30859H139.017L140.884 13.6846L142.825 8.30859H144.876L141.749 15.999H139.903L136.966 8.30859ZM145.425 13.604C145.425 12.0757 146.539 11.3115 148.765 11.3115C149.288 11.3115 149.81 11.3604 150.333 11.458V10.8794C150.333 10.1909 149.837 9.84668 148.846 9.84668C148.006 9.84668 147.073 9.96875 146.048 10.2129V8.6748C147.073 8.43066 148.006 8.30859 148.846 8.30859C151.131 8.30859 152.273 9.15332 152.273 10.8428V15.999H151.146L150.457 15.3105C149.788 15.7695 149.051 15.999 148.245 15.999C146.365 15.999 145.425 15.2007 145.425 13.604ZM150.333 12.7764C149.844 12.6787 149.322 12.6299 148.765 12.6299C147.833 12.6299 147.366 12.9473 147.366 13.582C147.366 14.2656 147.757 14.6074 148.538 14.6074C149.183 14.6074 149.781 14.4072 150.333 14.0068V12.7764ZM156.419 14.644L155.32 17.8301H153.379L154.478 14.644H156.419ZM162.081 15.999H160.088L164.534 5.52539H166.622L171.163 15.999H169.075L167.881 13.1426H164.402L165.069 11.458H167.178L165.53 7.5249L162.081 15.999ZM171.346 8.30859H173.396L175.264 13.6846L177.205 8.30859H179.256L176.128 15.999H174.283L171.346 8.30859ZM180.062 7.06348H181.497L181.79 8.30859H183.724V9.84668H182.002V13.3843C182.002 14.1021 182.312 14.4609 182.933 14.4609H183.724V15.999H181.995C180.706 15.999 180.062 15.3081 180.062 13.9263V7.06348ZM186.624 12.1245C186.624 13.731 187.247 14.5342 188.492 14.5342C189.737 14.5342 190.359 13.731 190.359 12.1245C190.359 10.5571 189.737 9.77344 188.492 9.77344C187.247 9.77344 186.624 10.5571 186.624 12.1245ZM184.683 12.1538C184.683 9.57568 185.953 8.28662 188.492 8.28662C191.031 8.28662 192.3 9.57568 192.3 12.1538C192.3 14.7271 191.031 16.0137 188.492 16.0137C185.962 16.0137 184.693 14.7271 184.683 12.1538ZM193.765 15.999V8.30859H195.267L195.494 9.42188C196.182 8.67969 197.01 8.30859 197.977 8.30859C198.943 8.30859 199.605 8.66016 199.961 9.36328C200.748 8.66016 201.57 8.30859 202.43 8.30859C204.197 8.30859 205.081 9.28271 205.081 11.231V15.999H203.14V11.1577C203.14 10.3032 202.754 9.87598 201.983 9.87598C201.407 9.87598 200.853 10.1348 200.32 10.6523V15.999H198.379V11.1797C198.379 10.3105 198.023 9.87598 197.31 9.87598C196.744 9.87598 196.209 10.1348 195.706 10.6523V15.999H193.765ZM208.494 12.1245C208.494 13.731 209.117 14.5342 210.362 14.5342C211.607 14.5342 212.229 13.731 212.229 12.1245C212.229 10.5571 211.607 9.77344 210.362 9.77344C209.117 9.77344 208.494 10.5571 208.494 12.1245ZM206.553 12.1538C206.553 9.57568 207.823 8.28662 210.362 8.28662C212.901 8.28662 214.17 9.57568 214.17 12.1538C214.17 14.7271 212.901 16.0137 210.362 16.0137C207.833 16.0137 206.563 14.7271 206.553 12.1538ZM217.576 14.2192C218.021 14.3608 218.536 14.4316 219.122 14.4316C220.293 14.4316 220.879 13.604 220.879 11.9487C220.879 10.5962 220.374 9.91992 219.363 9.91992C218.709 9.91992 218.113 10.0518 217.576 10.3154V14.2192ZM215.635 5.52539H217.576V8.89453C218.157 8.50391 218.804 8.30859 219.517 8.30859C221.705 8.30859 222.798 9.53906 222.798 12C222.798 14.666 221.546 15.999 219.041 15.999C217.986 15.999 216.851 15.894 215.635 15.6841V5.52539ZM226.204 5.52539V7.06348H224.263V5.52539H226.204ZM226.204 8.30859V15.999H224.263V8.30859H226.204ZM229.983 5.52539V15.999H228.042V5.52539H229.983ZM234.202 8.30859H236.26L238.201 13.8457L240.098 8.30859H242.12L238.926 16.2261C238.36 17.6226 237.454 18.6162 236.209 19.207L235.271 17.8813C236.131 17.5054 236.756 16.8926 237.146 16.043L234.202 8.30859ZM244.617 12.1245C244.617 13.731 245.24 14.5342 246.485 14.5342C247.73 14.5342 248.353 13.731 248.353 12.1245C248.353 10.5571 247.73 9.77344 246.485 9.77344C245.24 9.77344 244.617 10.5571 244.617 12.1245ZM242.676 12.1538C242.676 9.57568 243.946 8.28662 246.485 8.28662C249.024 8.28662 250.293 9.57568 250.293 12.1538C250.293 14.7271 249.024 16.0137 246.485 16.0137C243.956 16.0137 242.686 14.7271 242.676 12.1538ZM254.102 5.52539L253.003 8.71143H251.209L252.308 5.52539H254.102ZM257.332 5.52539V15.999H255.391V5.52539H257.332ZM261.111 5.52539V7.06348H259.17V5.52539H261.111ZM261.111 8.30859V15.999H259.17V8.30859H261.111ZM265.257 14.644L264.158 17.8301H262.217L263.316 14.644H265.257ZM272.654 14.4609H275.943V9.84668H273.819C273.819 11.9902 273.431 13.5283 272.654 14.4609ZM268.743 18.7822V14.4609H270.091C271.282 14.4609 271.878 12.9229 271.878 9.84668V8.30859H277.884V14.4609H279.239V18.7822H277.298V15.999H270.677V18.7822H268.743ZM282.168 14.2046V15.999H280.228V14.2046H282.168ZM283.641 5.8916C284.617 5.59863 285.643 5.45215 286.717 5.45215C289.329 5.45215 290.635 6.4043 290.635 8.30859C290.635 9.46094 290.176 10.2544 289.258 10.689C290.176 11.104 290.635 11.8975 290.635 13.0693C290.635 15.0713 289.329 16.0723 286.717 16.0723C285.643 16.0723 284.617 15.9258 283.641 15.6328V13.875C284.617 14.2168 285.643 14.3877 286.717 14.3877C288.035 14.3877 288.694 13.9482 288.694 13.0693C288.694 12.0439 288.226 11.5312 287.288 11.5312H284.739V9.84668H287.266C288.218 9.84668 288.694 9.33398 288.694 8.30859C288.694 7.52734 288.035 7.13672 286.717 7.13672C285.643 7.13672 284.617 7.30762 283.641 7.64941V5.8916ZM293.755 14.2046V15.999H291.814V14.2046H293.755ZM300.333 10.0518C299.869 9.93457 299.441 9.87598 299.051 9.87598C297.659 9.87598 296.963 10.6157 296.963 12.0952C296.963 13.6235 297.566 14.3877 298.772 14.3877C299.378 14.3877 299.898 14.2559 300.333 13.9922V10.0518ZM302.273 18.7822H300.333V15.6328C299.805 15.877 299.209 15.999 298.545 15.999C296.211 15.999 295.044 14.7026 295.044 12.1099C295.044 9.57568 296.375 8.30859 299.036 8.30859C300.027 8.30859 301.106 8.41357 302.273 8.62354V18.7822ZM303.746 13.604C303.746 12.0757 304.859 11.3115 307.085 11.3115C307.608 11.3115 308.13 11.3604 308.653 11.458V10.8794C308.653 10.1909 308.157 9.84668 307.166 9.84668C306.326 9.84668 305.394 9.96875 304.368 10.2129V8.6748C305.394 8.43066 306.326 8.30859 307.166 8.30859C309.451 8.30859 310.594 9.15332 310.594 10.8428V15.999H309.466L308.777 15.3105C308.108 15.7695 307.371 15.999 306.565 15.999C304.686 15.999 303.746 15.2007 303.746 13.604ZM308.653 12.7764C308.165 12.6787 307.642 12.6299 307.085 12.6299C306.153 12.6299 305.687 12.9473 305.687 13.582C305.687 14.2656 306.077 14.6074 306.858 14.6074C307.503 14.6074 308.101 14.4072 308.653 14.0068V12.7764ZM312.322 7.06348H313.758L314.051 8.30859H315.984V9.84668H314.263V13.3843C314.263 14.1021 314.573 14.4609 315.193 14.4609H315.984V15.999H314.256C312.967 15.999 312.322 15.3081 312.322 13.9263V7.06348ZM318.885 12.1245C318.885 13.731 319.507 14.5342 320.752 14.5342C321.998 14.5342 322.62 13.731 322.62 12.1245C322.62 10.5571 321.998 9.77344 320.752 9.77344C319.507 9.77344 318.885 10.5571 318.885 12.1245ZM316.944 12.1538C316.944 9.57568 318.213 8.28662 320.752 8.28662C323.292 8.28662 324.561 9.57568 324.561 12.1538C324.561 14.7271 323.292 16.0137 320.752 16.0137C318.223 16.0137 316.954 14.7271 316.944 12.1538ZM326.026 15.999V8.30859H327.527L327.769 9.29004C328.443 8.63574 329.156 8.30859 329.908 8.30859V9.87598C329.185 9.87598 328.538 10.1763 327.967 10.7769V15.999H326.026ZM332.764 14.2046V15.999H330.823V14.2046H332.764ZM334.786 5.52539H341.041V7.06348H336.456L336.28 9.6416C336.558 9.53418 336.963 9.48047 337.496 9.48047C340.132 9.48047 341.451 10.5547 341.451 12.7031C341.451 14.9492 340.083 16.0723 337.349 16.0723C336.373 16.0723 335.396 15.9258 334.419 15.6328V14.0215C335.396 14.3633 336.397 14.5342 337.422 14.5342C338.814 14.5342 339.51 13.9238 339.51 12.7031C339.51 11.5801 338.838 11.0186 337.496 11.0186C336.397 11.0186 335.372 11.1406 334.419 11.3848L334.786 5.52539Z" fill="#AFAFAF"/>
<path d="M12.7349 4.33594C11.5487 4.3372 10.4114 4.78557 9.57267 5.58266C8.73389 6.37975 8.26207 7.46048 8.26074 8.58773C8.26074 10.3177 9.5823 11.7543 10.9822 13.2748C11.4251 13.7563 11.8837 14.2543 12.292 14.7582C12.3442 14.8226 12.4113 14.8747 12.4881 14.9106C12.5649 14.9465 12.6493 14.9652 12.7349 14.9652C12.8205 14.9652 12.9049 14.9465 12.9817 14.9106C13.0585 14.8747 13.1256 14.8226 13.1779 14.7582C13.5861 14.2543 14.0447 13.7563 14.4877 13.2748C15.8875 11.7543 17.2091 10.3177 17.2091 8.58773C17.2077 7.46048 16.7359 6.37975 15.8972 5.58266C15.0584 4.78557 13.9211 4.3372 12.7349 4.33594ZM12.7349 10.1822C12.4031 10.1822 12.0787 10.0886 11.8028 9.91345C11.5269 9.73825 11.3118 9.48924 11.1848 9.19789C11.0578 8.90655 11.0246 8.58596 11.0893 8.27668C11.1541 7.96739 11.3139 7.68329 11.5485 7.46031C11.7832 7.23732 12.0821 7.08547 12.4076 7.02395C12.733 6.96243 13.0704 6.994 13.377 7.11468C13.6836 7.23536 13.9456 7.43972 14.13 7.70192C14.3143 7.96412 14.4127 8.27239 14.4127 8.58773C14.4127 9.0106 14.236 9.41615 13.9213 9.71516C13.6067 10.0142 13.1799 10.1822 12.7349 10.1822Z" fill="url(#paint0_linear_6176_89)"/>
<defs>
<linearGradient id="paint0_linear_6176_89" x1="8.26074" y1="11.6435" x2="17.612" y2="8.36333" gradientUnits="userSpaceOnUse">
<stop stop-color="#9F7437"/>
<stop offset="1" stop-color="#E3D293"/>
</linearGradient>
</defs>
</svg>
