<svg width="80" height="20" viewBox="0 0 80 20" fill="none" xmlns="http://www.w3.org/2000/svg">
<path d="M13.2978 1H4.6262C4.23256 1 3.91343 1.30606 3.91343 1.68358C3.91343 2.06109 4.23256 2.36715 4.6262 2.36715H8.33123C7.55096 2.83594 6.84627 3.41152 6.2395 4.07568H1.3949C1.00126 4.07572 0.682129 4.38182 0.682129 4.75934C0.682129 5.13686 1.00126 5.44292 1.3949 5.44292H5.20838C4.38604 6.7804 3.91339 8.33818 3.91339 10C3.91339 11.9337 4.55272 13.7269 5.63906 15.1955H3.61669C3.22305 15.1955 2.90392 15.5016 2.90392 15.8791C2.90392 16.2566 3.22305 16.5627 3.61669 16.5627H6.88313C7.32861 16.9635 7.81358 17.3219 8.33123 17.6328H1.46842C1.07478 17.6328 0.755649 17.9389 0.755649 18.3164C0.755649 18.6939 1.07478 19 1.46842 19H13.2978C18.4724 19 22.6821 14.9626 22.6821 9.99998C22.6821 5.03738 18.4723 1 13.2978 1ZM13.2978 17.6329C8.90929 17.6329 5.33901 14.2089 5.33901 10.0001C5.33901 5.79125 8.90929 2.36719 13.2978 2.36719C17.6863 2.36719 21.2566 5.79125 21.2566 10C21.2566 14.2088 17.6863 17.6329 13.2978 17.6329Z" fill="#727272"/>
<path d="M13.2978 4.41653C10.0875 4.41653 7.47582 6.9213 7.47582 10.0001C7.47582 11.8361 8.40476 13.4678 9.83545 14.4861C9.84856 14.4967 9.86158 14.5074 9.87571 14.5172C9.89161 14.5283 9.9079 14.5386 9.92435 14.5483C10.8767 15.1998 12.0414 15.5836 13.2978 15.5836C14.5542 15.5836 15.7188 15.1998 16.6712 14.5483C16.6877 14.5386 16.704 14.5283 16.7199 14.5172C16.734 14.5074 16.747 14.4966 16.7601 14.4861C18.1908 13.4678 19.1198 11.8361 19.1198 10.0001C19.1198 6.92134 16.508 4.41653 13.2978 4.41653ZM14.0106 5.83944C15.4015 6.05789 16.575 6.90432 17.2027 8.06448L15.3569 8.63968C15.0364 8.19466 14.5632 7.85844 14.0106 7.70056V5.83944H14.0106ZM14.3739 10C14.3739 10.5691 13.8912 11.0321 13.2978 11.0321C12.7044 11.0321 12.2216 10.5692 12.2216 10C12.2216 9.43093 12.7044 8.96795 13.2978 8.96795C13.8912 8.96795 14.3739 9.43093 14.3739 10ZM12.585 5.83944V7.70056C12.0323 7.85844 11.5592 8.19466 11.2386 8.63968L9.39287 8.06448C10.0206 6.90432 11.1941 6.05785 12.585 5.83944ZM10.1725 12.9624C9.38716 12.2004 8.90139 11.1536 8.90139 10C8.90139 9.78401 8.9185 9.57174 8.95132 9.36438L10.7977 9.93974C10.7971 9.95985 10.796 9.9798 10.796 10C10.796 10.5479 10.9889 11.0533 11.3125 11.4576L10.1725 12.9624ZM13.2978 14.2164C12.5888 14.2164 11.9185 14.0544 11.3249 13.7672L12.4651 12.2622C12.7257 12.3507 13.0059 12.3994 13.2978 12.3994C13.5897 12.3994 13.8698 12.3507 14.1305 12.2622L15.2707 13.7672C14.677 14.0543 14.0068 14.2164 13.2978 14.2164ZM16.423 12.9624L15.283 11.4577C15.6066 11.0533 15.7995 10.548 15.7995 10.0001C15.7995 9.97984 15.7985 9.95989 15.7979 9.93978L17.6442 9.36442C17.6775 9.5748 17.6942 9.78729 17.6942 10.0001C17.6942 11.1536 17.2085 12.2003 16.423 12.9624Z" fill="#727272"/>
<path d="M38.3169 5.24023C39.1632 4.98633 40.0519 4.85938 40.9829 4.85938C43.2469 4.85938 44.3789 5.68457 44.3789 7.33496C44.3789 8.33366 43.9811 9.02132 43.1855 9.39795C43.9811 9.75765 44.3789 10.4453 44.3789 11.4609C44.3789 13.196 43.2469 14.0635 40.9829 14.0635C40.0519 14.0635 39.1632 13.9365 38.3169 13.6826V12.1592C39.1632 12.4554 40.0519 12.6035 40.9829 12.6035C42.1255 12.6035 42.6968 12.2227 42.6968 11.4609C42.6968 10.5723 42.2905 10.1279 41.478 10.1279H39.269V8.66797H41.459C42.2842 8.66797 42.6968 8.22363 42.6968 7.33496C42.6968 6.65788 42.1255 6.31934 40.9829 6.31934C40.0519 6.31934 39.1632 6.46745 38.3169 6.76367V5.24023ZM46.353 14V6.31299H45.4009V5.62109L48.0352 4.73242V14H46.353ZM49.7808 4.92285H56.2554V6.25586L52.1802 14H50.333L54.4717 6.38281H49.7808V4.92285ZM59.4292 12.667C60.4321 12.667 60.9336 12.2227 60.9336 11.334V7.33496H66.5195V14H64.8374V8.66797H62.6157V11.334C62.6157 13.1113 61.5535 14 59.4292 14V12.667ZM69.6299 12.4448V14H67.9478V12.4448H69.6299ZM75.9839 13.8096C75.4338 13.9365 74.8625 14 74.27 14C71.9002 14 70.7153 12.8468 70.7153 10.5405C70.7153 8.40348 71.9002 7.33496 74.27 7.33496C74.8625 7.33496 75.4338 7.39844 75.9839 7.52539V8.8584C75.4338 8.73145 74.9048 8.66797 74.397 8.66797C73.064 8.66797 72.3975 9.29215 72.3975 10.5405C72.3975 11.9582 73.064 12.667 74.397 12.667C74.9048 12.667 75.4338 12.6035 75.9839 12.4766V13.8096ZM78.6182 12.4448V14H76.936V12.4448H78.6182Z" fill="#707070"/>
</svg>
