<svg width="185" height="43" viewBox="0 0 185 43" fill="none" xmlns="http://www.w3.org/2000/svg">
<path d="M4.11133 11.125V8.75195H5.95703V11.125H8.33008V12.9707H5.95703V15.3438H4.11133V12.9707H1.73828V11.125H4.11133ZM10.0879 4.09375H19.0527V5.93945L13.4102 16.6621H10.8525L16.583 6.11523H10.0879V4.09375ZM28.4131 4.09375C27.2412 6.74219 26.6553 9.39355 26.6553 12.0479C26.6553 14.7021 27.2412 17.3535 28.4131 20.002H26.084C24.9121 17.3535 24.3262 14.7021 24.3262 12.0479C24.3262 9.39355 24.9121 6.74219 26.084 4.09375H28.4131ZM38.2744 16.6621H35.9453V13.9375H29.5996V12.1797L34.7412 4.09375H37.2373L32.2627 12.0918H35.9453V7.89062H38.2744V12.0918L39.5752 13.2871V13.9375H38.2744V16.6621ZM50.3418 8.90137C50.3418 12.1592 48.3262 14.8633 44.2949 17.0137L43.1875 15.1943C45.1914 14.251 46.6094 13.082 47.4414 11.6875C46.7324 11.998 46.0117 12.1533 45.2793 12.1533C42.209 12.1533 40.6738 10.835 40.6738 8.19824C40.6738 5.38574 42.3232 3.97949 45.6221 3.97949C48.7686 3.97949 50.3418 5.62012 50.3418 8.90137ZM48.1006 8.9541C48.1006 6.86816 47.248 5.8252 45.543 5.8252C43.8262 5.8252 42.9678 6.61621 42.9678 8.19824C42.9678 9.60449 43.7646 10.3076 45.3584 10.3076C46.2607 10.3076 47.1221 10.167 47.9424 9.88574C48.0479 9.65137 48.1006 9.34082 48.1006 8.9541ZM61.4688 8.90137C61.4688 12.1592 59.4531 14.8633 55.4219 17.0137L54.3145 15.1943C56.3184 14.251 57.7363 13.082 58.5684 11.6875C57.8594 11.998 57.1387 12.1533 56.4062 12.1533C53.3359 12.1533 51.8008 10.835 51.8008 8.19824C51.8008 5.38574 53.4502 3.97949 56.749 3.97949C59.8955 3.97949 61.4688 5.62012 61.4688 8.90137ZM59.2275 8.9541C59.2275 6.86816 58.375 5.8252 56.6699 5.8252C54.9531 5.8252 54.0947 6.61621 54.0947 8.19824C54.0947 9.60449 54.8916 10.3076 56.4854 10.3076C57.3877 10.3076 58.249 10.167 59.0693 9.88574C59.1748 9.65137 59.2275 9.34082 59.2275 8.9541ZM65.0371 4.09375C66.209 6.74219 66.7949 9.39355 66.7949 12.0479C66.7949 14.7021 66.209 17.3535 65.0371 20.002H62.708C63.8799 17.3535 64.4658 14.7021 64.4658 12.0479C64.4658 9.39355 63.8799 6.74219 62.708 4.09375H65.0371ZM73.8262 16.6621V6.01855H72.5078V5.06055L76.1553 3.83008V16.6621H73.8262ZM79.8906 16.6621V6.01855H78.5723V5.06055L82.2197 3.83008V16.6621H79.8906ZM86.9658 10.3428C86.9658 13.2666 88.0293 14.7285 90.1562 14.7285C92.2188 14.7285 93.25 13.2666 93.25 10.3428C93.25 7.46582 92.2188 6.02734 90.1562 6.02734C88.0293 6.02734 86.9658 7.46582 86.9658 10.3428ZM84.5488 10.3955C84.5488 6.13574 86.418 4.00586 90.1562 4.00586C93.8301 4.00586 95.667 6.13574 95.667 10.3955C95.667 14.6318 93.8301 16.75 90.1562 16.75C86.418 16.75 84.5488 14.6318 84.5488 10.3955ZM101.74 11.125V12.9707H97.3457V11.125H101.74ZM103.498 16.6621V14.9043C107.688 11.9922 109.782 9.58984 109.782 7.69727C109.782 6.58398 109.021 6.02734 107.497 6.02734C106.208 6.02734 104.992 6.34961 103.85 6.99414V4.88477C104.992 4.29883 106.208 4.00586 107.497 4.00586C110.573 4.00586 112.111 5.23633 112.111 7.69727C112.111 9.86523 110.433 12.1797 107.075 14.6406H112.111V16.6621H103.498ZM116.198 10.3428C116.198 13.2666 117.262 14.7285 119.389 14.7285C121.451 14.7285 122.482 13.2666 122.482 10.3428C122.482 7.46582 121.451 6.02734 119.389 6.02734C117.262 6.02734 116.198 7.46582 116.198 10.3428ZM113.781 10.3955C113.781 6.13574 115.65 4.00586 119.389 4.00586C123.062 4.00586 124.899 6.13574 124.899 10.3955C124.899 14.6318 123.062 16.75 119.389 16.75C115.65 16.75 113.781 14.6318 113.781 10.3955ZM130.973 11.125V12.9707H126.578V11.125H130.973ZM141.054 16.6621H138.725V13.9375H132.379V12.1797L137.521 4.09375H140.017L135.042 12.0918H138.725V7.89062H141.054V12.0918L142.354 13.2871V13.9375H141.054V16.6621ZM143.453 4.09375H152.418V5.93945L146.775 16.6621H144.218L149.948 6.11523H143.453V4.09375Z" fill="white"/>
<path d="M3.29102 32.2832V40.6621H1.73828V32.2832H3.29102ZM4.9082 40.3691V39.0801C5.5918 39.3535 6.38086 39.4902 7.27539 39.4902C7.94336 39.4902 8.27734 39.2754 8.27734 38.8457C8.27734 38.4355 8.05273 38.2305 7.60352 38.2305H6.49023C5.24023 38.2305 4.61523 37.6152 4.61523 36.3848C4.61523 35.0957 5.52734 34.4512 7.35156 34.4512C8.125 34.4512 8.85352 34.5684 9.53711 34.8027V36.0918C8.85352 35.8184 8.11133 35.6816 7.31055 35.6816C6.4707 35.6816 6.05078 35.8965 6.05078 36.3262C6.05078 36.7363 6.29492 36.9414 6.7832 36.9414H7.7793C9.14648 36.9414 9.83008 37.5566 9.83008 38.7871C9.83008 40.0762 8.95898 40.7207 7.2168 40.7207C6.36133 40.7207 5.5918 40.6035 4.9082 40.3691ZM10.9199 40.6621V32.2832H12.4727V35.2949C12.957 34.7715 13.5762 34.5098 14.3301 34.5098C15.7871 34.5098 16.5156 35.2676 16.5156 36.7832V40.6621H14.9629V36.7832C14.9629 36.1035 14.625 35.7637 13.9492 35.7637C13.4453 35.7637 12.9531 35.9648 12.4727 36.3672V40.6621H10.9199ZM19.8906 34.5098H21.5312L23.0254 38.8105L24.5781 34.5098H26.2188L23.7168 40.6621H22.2402L19.8906 34.5098ZM26.6582 38.7461C26.6582 37.5234 27.5488 36.9121 29.3301 36.9121C29.748 36.9121 30.166 36.9512 30.584 37.0293V36.5664C30.584 36.0156 30.1875 35.7402 29.3945 35.7402C28.7227 35.7402 27.9766 35.8379 27.1562 36.0332V34.8027C27.9766 34.6074 28.7227 34.5098 29.3945 34.5098C31.2227 34.5098 32.1367 35.1855 32.1367 36.5371V40.6621H31.2344L30.6836 40.1113C30.1484 40.4785 29.5586 40.6621 28.9141 40.6621C27.4102 40.6621 26.6582 40.0234 26.6582 38.7461ZM30.584 38.084C30.1934 38.0059 29.7754 37.9668 29.3301 37.9668C28.584 37.9668 28.2109 38.2207 28.2109 38.7285C28.2109 39.2754 28.5234 39.5488 29.1484 39.5488C29.6641 39.5488 30.1426 39.3887 30.584 39.0684V38.084ZM37.5449 35.9043C37.1738 35.8105 36.832 35.7637 36.5195 35.7637C35.4062 35.7637 34.8496 36.3555 34.8496 37.5391C34.8496 38.7617 35.332 39.373 36.2969 39.373C36.7812 39.373 37.1973 39.2676 37.5449 39.0566V35.9043ZM39.0977 42.8887H37.5449V40.3691C37.123 40.5645 36.6465 40.6621 36.1152 40.6621C34.248 40.6621 33.3145 39.625 33.3145 37.5508C33.3145 35.5234 34.3789 34.5098 36.5078 34.5098C37.3008 34.5098 38.1641 34.5938 39.0977 34.7617V42.8887ZM40.4805 33.5137H41.6289L41.8633 34.5098H43.4102V35.7402H42.0332V38.5703C42.0332 39.1445 42.2812 39.4316 42.7773 39.4316H43.4102V40.6621H42.0273C40.9961 40.6621 40.4805 40.1094 40.4805 39.0039V33.5137ZM46.0234 32.2832V33.5137H44.4707V32.2832H46.0234ZM46.0234 34.5098V40.6621H44.4707V34.5098H46.0234ZM49.0469 34.5098V35.9453H47.4941V34.5098H49.0469ZM49.0469 39.2266V40.6621H47.4941V39.2266H49.0469ZM56.3711 40.6621V33.5664H55.4922V32.9277L57.9238 32.1074V40.6621H56.3711ZM61.0879 36.4492C61.0879 38.3984 61.7969 39.373 63.2148 39.373C64.5898 39.373 65.2773 38.3984 65.2773 36.4492C65.2773 34.5312 64.5898 33.5723 63.2148 33.5723C61.7969 33.5723 61.0879 34.5312 61.0879 36.4492ZM59.4766 36.4844C59.4766 33.6445 60.7227 32.2246 63.2148 32.2246C65.6641 32.2246 66.8887 33.6445 66.8887 36.4844C66.8887 39.3086 65.6641 40.7207 63.2148 40.7207C60.7227 40.7207 59.4766 39.3086 59.4766 36.4844ZM69.707 34.5098V35.9453H68.1543V34.5098H69.707ZM69.707 39.2266V40.6621H68.1543V39.2266H69.707ZM72.4316 36.4492C72.4316 38.3984 73.1406 39.373 74.5586 39.373C75.9336 39.373 76.6211 38.3984 76.6211 36.4492C76.6211 34.5312 75.9336 33.5723 74.5586 33.5723C73.1406 33.5723 72.4316 34.5312 72.4316 36.4492ZM70.8203 36.4844C70.8203 33.6445 72.0664 32.2246 74.5586 32.2246C77.0078 32.2246 78.2324 33.6445 78.2324 36.4844C78.2324 39.3086 77.0078 40.7207 74.5586 40.7207C72.0664 40.7207 70.8203 39.3086 70.8203 36.4844ZM80.9043 36.4492C80.9043 38.3984 81.6133 39.373 83.0312 39.373C84.4062 39.373 85.0938 38.3984 85.0938 36.4492C85.0938 34.5312 84.4062 33.5723 83.0312 33.5723C81.6133 33.5723 80.9043 34.5312 80.9043 36.4492ZM79.293 36.4844C79.293 33.6445 80.5391 32.2246 83.0312 32.2246C85.4805 32.2246 86.7051 33.6445 86.7051 36.4844C86.7051 39.3086 85.4805 40.7207 83.0312 40.7207C80.5391 40.7207 79.293 39.3086 79.293 36.4844ZM94.5039 36.1152C94.1836 35.9043 93.7812 35.7988 93.2969 35.7988C92.332 35.7988 91.8496 36.3398 91.8496 37.4219C91.8496 38.707 92.3516 39.3496 93.3555 39.3496C93.7617 39.3496 94.1445 39.293 94.5039 39.1797V36.1152ZM96.0566 40.293C95.1152 40.5391 94.1953 40.6621 93.2969 40.6621C91.3086 40.6621 90.3145 39.5957 90.3145 37.4629C90.3145 35.4941 91.2871 34.5098 93.2324 34.5098C93.6465 34.5098 94.0703 34.6074 94.5039 34.8027V32.2832H96.0566V40.293ZM97.2285 38.7461C97.2285 37.5234 98.1191 36.9121 99.9004 36.9121C100.318 36.9121 100.736 36.9512 101.154 37.0293V36.5664C101.154 36.0156 100.758 35.7402 99.9648 35.7402C99.293 35.7402 98.5469 35.8379 97.7266 36.0332V34.8027C98.5469 34.6074 99.293 34.5098 99.9648 34.5098C101.793 34.5098 102.707 35.1855 102.707 36.5371V40.6621H101.805L101.254 40.1113C100.719 40.4785 100.129 40.6621 99.4844 40.6621C97.9805 40.6621 97.2285 40.0234 97.2285 38.7461ZM101.154 38.084C100.764 38.0059 100.346 37.9668 99.9004 37.9668C99.1543 37.9668 98.7812 38.2207 98.7812 38.7285C98.7812 39.2754 99.0938 39.5488 99.7188 39.5488C100.234 39.5488 100.713 39.3887 101.154 39.0684V38.084ZM104.178 40.6621V34.5098H105.379L105.572 35.4121C106.162 34.8105 106.834 34.5098 107.588 34.5098C109.045 34.5098 109.773 35.2676 109.773 36.7832V40.6621H108.221V36.7832C108.221 36.1035 107.883 35.7637 107.207 35.7637C106.703 35.7637 106.211 35.9648 105.73 36.3672V40.6621H104.178ZM113.734 40.6621V39.4902C116.527 37.5488 117.924 35.9473 117.924 34.6855C117.924 33.9434 117.416 33.5723 116.4 33.5723C115.541 33.5723 114.73 33.7871 113.969 34.2168V32.8105C114.73 32.4199 115.541 32.2246 116.4 32.2246C118.451 32.2246 119.477 33.0449 119.477 34.6855C119.477 36.1309 118.357 37.6738 116.119 39.3145H119.477V40.6621H113.734ZM122.201 36.4492C122.201 38.3984 122.91 39.373 124.328 39.373C125.703 39.373 126.391 38.3984 126.391 36.4492C126.391 34.5312 125.703 33.5723 124.328 33.5723C122.91 33.5723 122.201 34.5312 122.201 36.4492ZM120.59 36.4844C120.59 33.6445 121.836 32.2246 124.328 32.2246C126.777 32.2246 128.002 33.6445 128.002 36.4844C128.002 39.3086 126.777 40.7207 124.328 40.7207C121.836 40.7207 120.59 39.3086 120.59 36.4844ZM130.82 34.5098V35.9453H129.268V34.5098H130.82ZM130.82 39.2266V40.6621H129.268V39.2266H130.82ZM133.545 36.4492C133.545 38.3984 134.254 39.373 135.672 39.373C137.047 39.373 137.734 38.3984 137.734 36.4492C137.734 34.5312 137.047 33.5723 135.672 33.5723C134.254 33.5723 133.545 34.5312 133.545 36.4492ZM131.934 36.4844C131.934 33.6445 133.18 32.2246 135.672 32.2246C138.121 32.2246 139.346 33.6445 139.346 36.4844C139.346 39.3086 138.121 40.7207 135.672 40.7207C133.18 40.7207 131.934 39.3086 131.934 36.4844ZM142.018 36.4492C142.018 38.3984 142.727 39.373 144.145 39.373C145.52 39.373 146.207 38.3984 146.207 36.4492C146.207 34.5312 145.52 33.5723 144.145 33.5723C142.727 33.5723 142.018 34.5312 142.018 36.4492ZM140.406 36.4844C140.406 33.6445 141.652 32.2246 144.145 32.2246C146.594 32.2246 147.818 33.6445 147.818 36.4844C147.818 39.3086 146.594 40.7207 144.145 40.7207C141.652 40.7207 140.406 39.3086 140.406 36.4844ZM155.658 35.9043C155.404 35.8105 155.043 35.7637 154.574 35.7637C153.5 35.7637 152.963 36.3555 152.963 37.5391C152.963 38.6836 153.426 39.2559 154.352 39.2559C154.797 39.2559 155.232 39.1504 155.658 38.9395V35.9043ZM157.211 40.1934C157.211 41.9902 156.131 42.8887 153.971 42.8887C153.213 42.8887 152.541 42.791 151.955 42.5957V41.3652C152.553 41.5605 153.229 41.6582 153.982 41.6582C155.1 41.6582 155.658 41.1895 155.658 40.252C155.197 40.4473 154.701 40.5449 154.17 40.5449C152.342 40.5449 151.428 39.5469 151.428 37.5508C151.428 35.5234 152.492 34.5098 154.621 34.5098C155.336 34.5098 156.199 34.5938 157.211 34.7617V40.1934ZM158.389 38.7461C158.389 37.5234 159.279 36.9121 161.061 36.9121C161.479 36.9121 161.896 36.9512 162.314 37.0293V36.5664C162.314 36.0156 161.918 35.7402 161.125 35.7402C160.453 35.7402 159.707 35.8379 158.887 36.0332V34.8027C159.707 34.6074 160.453 34.5098 161.125 34.5098C162.953 34.5098 163.867 35.1855 163.867 36.5371V40.6621H162.965L162.414 40.1113C161.879 40.4785 161.289 40.6621 160.645 40.6621C159.141 40.6621 158.389 40.0234 158.389 38.7461ZM162.314 38.084C161.924 38.0059 161.506 37.9668 161.061 37.9668C160.314 37.9668 159.941 38.2207 159.941 38.7285C159.941 39.2754 160.254 39.5488 160.879 39.5488C161.395 39.5488 161.873 39.3887 162.314 39.0684V38.084ZM169.879 40.4863C169.371 40.6035 168.844 40.6621 168.297 40.6621C166.109 40.6621 165.016 39.5977 165.016 37.4688C165.016 35.4961 166.109 34.5098 168.297 34.5098C168.844 34.5098 169.371 34.5684 169.879 34.6855V35.916C169.371 35.7988 168.883 35.7402 168.414 35.7402C167.184 35.7402 166.568 36.3164 166.568 37.4688C166.568 38.7773 167.184 39.4316 168.414 39.4316C168.883 39.4316 169.371 39.373 169.879 39.2559V40.4863ZM170.904 40.6621V32.2832H172.457V35.2949C172.941 34.7715 173.561 34.5098 174.314 34.5098C175.771 34.5098 176.5 35.2676 176.5 36.7832V40.6621H174.947V36.7832C174.947 36.1035 174.609 35.7637 173.934 35.7637C173.43 35.7637 172.938 35.9648 172.457 36.3672V40.6621H170.904ZM177.678 38.7461C177.678 37.5234 178.568 36.9121 180.35 36.9121C180.768 36.9121 181.186 36.9512 181.604 37.0293V36.5664C181.604 36.0156 181.207 35.7402 180.414 35.7402C179.742 35.7402 178.996 35.8379 178.176 36.0332V34.8027C178.996 34.6074 179.742 34.5098 180.414 34.5098C182.242 34.5098 183.156 35.1855 183.156 36.5371V40.6621H182.254L181.703 40.1113C181.168 40.4785 180.578 40.6621 179.934 40.6621C178.43 40.6621 177.678 40.0234 177.678 38.7461ZM181.604 38.084C181.213 38.0059 180.795 37.9668 180.35 37.9668C179.604 37.9668 179.23 38.2207 179.23 38.7285C179.23 39.2754 179.543 39.5488 180.168 39.5488C180.684 39.5488 181.162 39.3887 181.604 39.0684V38.084Z" fill="#AFAFAF"/>
</svg>
