<svg width="653" height="23" viewBox="0 0 653 23" fill="none" xmlns="http://www.w3.org/2000/svg">
<path d="M1.76074 11.2671C1.76074 13.9712 3.07894 15.3232 5.71533 15.3232C8.47445 15.3232 9.854 13.9712 9.854 11.2671C9.854 8.59684 8.51676 7.26172 5.84229 7.26172C3.12126 7.26172 1.76074 8.59684 1.76074 11.2671ZM1.09424 11.2417C1.09424 8.20752 2.67692 6.69043 5.84229 6.69043C8.9611 6.69043 10.5205 8.20752 10.5205 11.2417C10.5205 14.3436 8.9611 15.8945 5.84229 15.8945C2.67692 15.8945 1.09424 14.3436 1.09424 11.2417ZM7.65137 13.6982C7.1224 13.9141 6.50879 14.022 5.81055 14.022C4.05013 14.022 3.16992 13.0846 3.16992 11.21C3.16992 9.44954 4.05013 8.56934 5.81055 8.56934C6.50879 8.56934 7.1224 8.67725 7.65137 8.89307V9.51514C7.1224 9.26969 6.53841 9.14697 5.89941 9.14697C4.52409 9.14697 3.83643 9.83464 3.83643 11.21C3.83643 12.6995 4.52409 13.4443 5.89941 13.4443C6.53841 13.4443 7.1224 13.3216 7.65137 13.0762V13.6982ZM14.9702 15.8311V14.5615C17.9959 12.4583 19.5088 10.7233 19.5088 9.35645C19.5088 8.55241 18.9587 8.15039 17.8584 8.15039C16.9274 8.15039 16.0493 8.38314 15.2241 8.84863V7.3252C16.0493 6.90202 16.9274 6.69043 17.8584 6.69043C20.0801 6.69043 21.1909 7.5791 21.1909 9.35645C21.1909 10.9222 19.9785 12.5938 17.5537 14.3711H21.1909V15.8311H14.9702ZM24.1426 11.2671C24.1426 13.3787 24.9106 14.4346 26.4468 14.4346C27.9364 14.4346 28.6812 13.3787 28.6812 11.2671C28.6812 9.18929 27.9364 8.15039 26.4468 8.15039C24.9106 8.15039 24.1426 9.18929 24.1426 11.2671ZM22.397 11.3052C22.397 8.22868 23.7469 6.69043 26.4468 6.69043C29.1001 6.69043 30.4268 8.22868 30.4268 11.3052C30.4268 14.3647 29.1001 15.8945 26.4468 15.8945C23.7469 15.8945 22.397 14.3647 22.397 11.3052ZM31.6392 15.8311V14.5615C34.6649 12.4583 36.1777 10.7233 36.1777 9.35645C36.1777 8.55241 35.6276 8.15039 34.5273 8.15039C33.5964 8.15039 32.7183 8.38314 31.8931 8.84863V7.3252C32.7183 6.90202 33.5964 6.69043 34.5273 6.69043C36.749 6.69043 37.8599 7.5791 37.8599 9.35645C37.8599 10.9222 36.6475 12.5938 34.2227 14.3711H37.8599V15.8311H31.6392ZM39.1294 7.07129C39.9757 6.81738 40.8644 6.69043 41.7954 6.69043C44.0594 6.69043 45.1914 7.51562 45.1914 9.16602C45.1914 10.1647 44.7936 10.8524 43.998 11.229C44.7936 11.5887 45.1914 12.2764 45.1914 13.292C45.1914 15.027 44.0594 15.8945 41.7954 15.8945C40.8644 15.8945 39.9757 15.7676 39.1294 15.5137V13.9902C39.9757 14.2865 40.8644 14.4346 41.7954 14.4346C42.938 14.4346 43.5093 14.0537 43.5093 13.292C43.5093 12.4033 43.103 11.959 42.2905 11.959H40.0815V10.499H42.2715C43.0967 10.499 43.5093 10.0547 43.5093 9.16602C43.5093 8.48893 42.938 8.15039 41.7954 8.15039C40.8644 8.15039 39.9757 8.2985 39.1294 8.59473V7.07129ZM52.9419 14.3711C54.825 14.3711 55.7666 13.2624 55.7666 11.0449C55.7666 9.15755 54.825 8.21387 52.9419 8.21387H51.0693V14.3711H52.9419ZM49.3872 15.8311V6.75391H52.9419C55.9465 6.75391 57.4487 8.18424 57.4487 11.0449C57.4487 14.2357 55.9465 15.8311 52.9419 15.8311H49.3872ZM60.4067 6.75391V8.08691H58.7246V6.75391H60.4067ZM60.4067 9.16602V15.8311H58.7246V9.16602H60.4067ZM61.9683 9.16602H67.1099V10.499L63.7012 14.5615H66.9829V15.8311H61.8413V14.5615L65.3008 10.499H61.9683V9.16602ZM68.4429 15.8184V6.75391H72.5688C74.4224 6.75391 75.3491 7.56429 75.3491 9.18506C75.3491 10.2811 74.6276 11.1888 73.1846 11.9082L76.0601 15.8311H73.9399L71.1787 11.8765V11.1084C72.7868 10.8333 73.5908 10.2091 73.5908 9.23584C73.5908 8.56722 73.2142 8.23291 72.4609 8.23291H70.1567V15.8184H68.4429ZM79.5132 9.16602C81.536 9.16602 82.5474 10.1986 82.5474 12.2637C82.5474 12.5387 82.5283 12.8138 82.4902 13.0889H78.0659C78.0659 14.0283 78.7557 14.498 80.1353 14.498C80.8081 14.498 81.481 14.4346 82.1538 14.3076V15.6406C81.5656 15.7676 80.8504 15.8311 80.0083 15.8311C77.592 15.8311 76.3838 14.6948 76.3838 12.4224C76.3838 10.2515 77.4269 9.16602 79.5132 9.16602ZM78.0659 11.9209H80.9097V11.8701C80.9097 10.9476 80.4442 10.4863 79.5132 10.4863C78.6245 10.4863 78.1421 10.9645 78.0659 11.9209ZM83.8105 15.8311V9.16602H85.1118L85.3213 10.1436C85.9603 9.49186 86.6882 9.16602 87.5049 9.16602C89.0833 9.16602 89.8726 9.98698 89.8726 11.6289V15.8311H88.1904V11.6289C88.1904 10.8926 87.8244 10.5244 87.0923 10.5244C86.5464 10.5244 86.0132 10.7424 85.4927 11.1782V15.8311H83.8105ZM91.3706 8.08691H92.6147L92.8687 9.16602H94.5444V10.499H93.0527V13.5649C93.0527 14.187 93.3215 14.498 93.8589 14.498H94.5444V15.8311H93.0464C91.9292 15.8311 91.3706 15.2323 91.3706 14.0347V8.08691ZM95.376 13.7554C95.376 12.4308 96.3408 11.7686 98.2705 11.7686C98.7233 11.7686 99.1761 11.8109 99.6289 11.8955V11.394C99.6289 10.7974 99.1994 10.499 98.3403 10.499C97.6125 10.499 96.8042 10.6048 95.9155 10.8164V9.4834C96.8042 9.27181 97.6125 9.16602 98.3403 9.16602C100.321 9.16602 101.311 9.89811 101.311 11.3623V15.8311H100.333L99.7368 15.2344C99.1571 15.6322 98.5181 15.8311 97.8198 15.8311C96.1906 15.8311 95.376 15.1392 95.376 13.7554ZM99.6289 13.0381C99.2057 12.9535 98.7529 12.9111 98.2705 12.9111C97.4622 12.9111 97.0581 13.1862 97.0581 13.7363C97.0581 14.3288 97.3966 14.625 98.0737 14.625C98.6323 14.625 99.1507 14.4515 99.6289 14.1045V13.0381ZM104.586 6.75391V15.8311H102.904V6.75391H104.586Z" fill="#7E7E7E"/>
<path d="M447.094 15.8311V6.75391H448.84L451.918 13.6411L454.934 6.75391H456.616V15.8311H455.061V9.50879L452.598 15.8311H451.163L448.649 9.50879V15.8311H447.094ZM458.044 13.7554C458.044 12.4308 459.009 11.7686 460.938 11.7686C461.391 11.7686 461.844 11.8109 462.297 11.8955V11.394C462.297 10.7974 461.867 10.499 461.008 10.499C460.28 10.499 459.472 10.6048 458.583 10.8164V9.4834C459.472 9.27181 460.28 9.16602 461.008 9.16602C462.989 9.16602 463.979 9.89811 463.979 11.3623V15.8311H463.001L462.405 15.2344C461.825 15.6322 461.186 15.8311 460.488 15.8311C458.859 15.8311 458.044 15.1392 458.044 13.7554ZM462.297 13.0381C461.874 12.9535 461.421 12.9111 460.938 12.9111C460.13 12.9111 459.726 13.1862 459.726 13.7363C459.726 14.3288 460.065 14.625 460.742 14.625C461.3 14.625 461.819 14.4515 462.297 14.1045V13.0381ZM467.273 12.4985L464.779 9.16602H466.651L468.207 11.248L469.762 9.16602H471.634L469.146 12.4985L471.634 15.8311H469.762L468.207 13.749L466.651 15.8311H464.779L467.273 12.4985ZM478.21 9.16602V15.8311H476.528V10.499H474.11V15.8311H472.428V8.84229C472.428 7.14535 473.426 6.29688 475.424 6.29688C476.139 6.29688 476.856 6.44499 477.576 6.74121V8.07422C476.924 7.77799 476.247 7.62988 475.544 7.62988C474.588 7.62988 474.11 8.01709 474.11 8.7915V9.16602H478.21ZM479.01 9.16602H480.794L482.476 13.9648L484.12 9.16602H485.872L483.104 16.0278C482.614 17.2381 481.829 18.0993 480.75 18.6113L479.937 17.4624C480.682 17.1366 481.223 16.6055 481.562 15.8691L479.01 9.16602ZM488.354 6.75391V15.8311H486.672V6.75391H488.354ZM491.629 6.75391V8.08691H489.947V6.75391H491.629ZM491.629 9.16602V15.8311H489.947V9.16602H491.629ZM493.223 15.8311V6.75391H494.905V9.68652C495.595 9.33952 496.32 9.16602 497.082 9.16602C498.783 9.16602 499.634 9.80713 499.634 11.0894C499.634 12.0203 499.041 12.7482 497.856 13.2729L499.926 15.8311H497.869L496.13 13.4507V12.6699C497.344 12.4118 497.952 11.9886 497.952 11.4004C497.952 10.7995 497.55 10.499 496.746 10.499C496.183 10.499 495.569 10.6768 494.905 11.0322V15.8311H493.223ZM503.734 15.5137V14.1172C504.475 14.4134 505.33 14.5615 506.299 14.5615C507.022 14.5615 507.384 14.3288 507.384 13.8633C507.384 13.4189 507.141 13.1968 506.654 13.1968H505.448C504.094 13.1968 503.417 12.5303 503.417 11.1973C503.417 9.80078 504.405 9.10254 506.381 9.10254C507.219 9.10254 508.008 9.22949 508.749 9.4834V10.8799C508.008 10.5837 507.204 10.4355 506.337 10.4355C505.427 10.4355 504.972 10.6683 504.972 11.1338C504.972 11.5781 505.237 11.8003 505.766 11.8003H506.845C508.326 11.8003 509.066 12.4668 509.066 13.7998C509.066 15.1963 508.123 15.8945 506.235 15.8945C505.309 15.8945 504.475 15.7676 503.734 15.5137ZM511.929 6.75391V8.08691H510.247V6.75391H511.929ZM511.929 9.16602V15.8311H510.247V9.16602H511.929ZM512.729 9.16602H514.513L516.195 13.9648L517.839 9.16602H519.591L516.823 16.0278C516.332 17.2381 515.547 18.0993 514.468 18.6113L513.656 17.4624C514.401 17.1366 514.942 16.6055 515.281 15.8691L512.729 9.16602ZM521.755 12.4731C521.755 13.8654 522.295 14.5615 523.374 14.5615C524.453 14.5615 524.993 13.8654 524.993 12.4731C524.993 11.1147 524.453 10.4355 523.374 10.4355C522.295 10.4355 521.755 11.1147 521.755 12.4731ZM520.073 12.4985C520.073 10.2642 521.174 9.14697 523.374 9.14697C525.575 9.14697 526.675 10.2642 526.675 12.4985C526.675 14.7287 525.575 15.8438 523.374 15.8438C521.182 15.8438 520.082 14.7287 520.073 12.4985ZM527.944 15.5137V14.1172C528.685 14.4134 529.54 14.5615 530.509 14.5615C531.232 14.5615 531.594 14.3288 531.594 13.8633C531.594 13.4189 531.351 13.1968 530.864 13.1968H529.658C528.304 13.1968 527.627 12.5303 527.627 11.1973C527.627 9.80078 528.615 9.10254 530.591 9.10254C531.429 9.10254 532.218 9.22949 532.959 9.4834V10.8799C532.218 10.5837 531.414 10.4355 530.547 10.4355C529.637 10.4355 529.182 10.6683 529.182 11.1338C529.182 11.5781 529.447 11.8003 529.976 11.8003H531.055C532.536 11.8003 533.276 12.4668 533.276 13.7998C533.276 15.1963 532.333 15.8945 530.445 15.8945C529.519 15.8945 528.685 15.7676 527.944 15.5137ZM534.14 13.7554C534.14 12.4308 535.104 11.7686 537.034 11.7686C537.487 11.7686 537.94 11.8109 538.393 11.8955V11.394C538.393 10.7974 537.963 10.499 537.104 10.499C536.376 10.499 535.568 10.6048 534.679 10.8164V9.4834C535.568 9.27181 536.376 9.16602 537.104 9.16602C539.084 9.16602 540.075 9.89811 540.075 11.3623V15.8311H539.097L538.5 15.2344C537.921 15.6322 537.282 15.8311 536.583 15.8311C534.954 15.8311 534.14 15.1392 534.14 13.7554ZM538.393 13.0381C537.969 12.9535 537.517 12.9111 537.034 12.9111C536.226 12.9111 535.822 13.1862 535.822 13.7363C535.822 14.3288 536.16 14.625 536.837 14.625C537.396 14.625 537.914 14.4515 538.393 14.1045V13.0381ZM541.573 8.08691H542.817L543.071 9.16602H544.747V10.499H543.255V13.5649C543.255 14.187 543.524 14.498 544.061 14.498H544.747V15.8311H543.249C542.131 15.8311 541.573 15.2323 541.573 14.0347V8.08691ZM547.578 6.75391V8.08691H545.896V6.75391H547.578ZM547.578 9.16602V15.8311H545.896V9.16602H547.578Z" fill="#7E7E7E"/>
</svg>
