<svg width="54" height="21" viewBox="0 0 54 21" fill="none" xmlns="http://www.w3.org/2000/svg">
<g opacity="0.3">
<path d="M15.4129 12.8318L15.4054 12.8943C13.5729 11.981 13.3812 11.8593 13.1446 12.2143C12.9804 12.4602 12.5021 13.0177 12.3579 13.1827C12.2121 13.3451 12.0671 13.3576 11.8196 13.2452C11.5696 13.1202 10.7671 12.8577 9.81706 12.0077C9.07706 11.3452 8.5804 10.5327 8.43373 10.2827C8.18956 9.86104 8.7004 9.80105 9.1654 8.92106C9.24873 8.74607 9.20623 8.60857 9.14456 8.4844C9.08206 8.35941 8.58456 7.13443 8.37623 6.6461C8.17623 6.15944 7.9704 6.22111 7.81623 6.22111C7.33623 6.17944 6.9854 6.18611 6.67623 6.50777C5.33123 7.98608 5.6704 9.51105 6.82123 11.1327C9.0829 14.0926 10.2879 14.6376 12.4912 15.3943C13.0862 15.5834 13.6287 15.5568 14.0579 15.4951C14.5362 15.4193 15.5304 14.8943 15.7379 14.3068C15.9504 13.7193 15.9504 13.2318 15.8879 13.1193C15.8262 13.0068 15.6629 12.9443 15.4129 12.8318Z" fill="#FF9900"/>
<path d="M17.9237 3.78365C11.5162 -2.4104 0.912064 2.08202 0.907897 10.8202C0.907897 12.5668 1.3654 14.2701 2.23706 15.7743L0.82373 20.9092L6.1029 19.5325C12.6904 23.0908 20.8204 18.3659 20.8237 10.8252C20.8237 8.17858 19.7904 5.68779 17.9112 3.81615L17.9237 3.78365ZM19.1587 10.7977C19.1537 17.1584 12.1712 21.1308 6.64873 17.8842L6.34873 17.7059L3.22373 18.5184L4.06123 15.4809L3.86206 15.1685C0.425397 9.69772 4.37373 2.54784 10.8837 2.54784C13.0954 2.54784 15.1712 3.41033 16.7346 4.9728C18.2971 6.52194 19.1587 8.59773 19.1587 10.7977Z" fill="#FF9900"/>
</g>
<path d="M42.2792 13.4542L41.9649 17.9214C42.4146 17.9214 42.6093 17.7262 42.8429 17.4918L44.9511 15.4558L49.3196 18.6886C50.1208 19.1398 50.6853 18.9022 50.9014 17.9438L53.7689 4.3663L53.7697 4.3655C54.0238 3.1687 53.3414 2.70071 52.5608 2.9943L35.7058 9.51507C34.5555 9.96627 34.5729 10.6143 35.5103 10.9079L39.8194 12.2623L49.8287 5.93349C50.2997 5.61829 50.728 5.79269 50.3757 6.10789L42.2792 13.4542Z" fill="#604214"/>
</svg>
