<svg width="12" height="8" viewBox="0 0 12 8" fill="none" xmlns="http://www.w3.org/2000/svg">
<path opacity="0.4" d="M6.00254 2.85226L1.51317 7.30974C1.38985 7.43248 1.22498 7.5 1.04917 7.5C0.873268 7.5 0.708488 7.43248 0.584976 7.30974L0.191805 6.91915C0.0680976 6.79661 7.31329e-08 6.6328 7.10512e-08 6.45823C6.89696e-08 6.28367 0.0680976 6.12005 0.191805 5.99741L5.53678 0.690066C5.66068 0.566941 5.82624 0.499518 6.00224 0.500003C6.17902 0.499518 6.34439 0.566844 6.46839 0.690066L11.8082 5.99247C11.9319 6.11511 12 6.27873 12 6.45339C12 6.62795 11.9319 6.79157 11.8082 6.91431L11.415 7.3048C11.1591 7.5589 10.7425 7.5589 10.4867 7.3048L6.00254 2.85226Z" fill="white"/>
</svg>
