<svg width="26" height="18" viewBox="0 0 26 18" fill="none" xmlns="http://www.w3.org/2000/svg">
<path d="M25.6129 8.09985L24.4031 5.46442C24.3396 5.32593 24.2355 5.20821 24.1037 5.12556C23.9718 5.04291 23.8179 4.99891 23.6605 4.99891H21.6556C21.4403 4.99891 21.2338 5.08118 21.0816 5.22762C20.9293 5.37407 20.8438 5.57269 20.8438 5.77979V7.01078H20.2201V5.99792C20.2201 5.79081 20.1346 5.59219 19.9824 5.44575C19.8301 5.29931 19.6237 5.21703 19.4084 5.21703H17.2471V3.08626C17.2471 2.87916 17.1616 2.68054 17.0094 2.53409C16.8571 2.38765 16.6507 2.30538 16.4354 2.30538H12.442V1.56177H16.4354C16.6507 1.56177 16.8571 1.4795 17.0094 1.33305C17.1616 1.18661 17.2471 0.987987 17.2471 0.780884C17.2471 0.573781 17.1616 0.37516 17.0094 0.228716C16.8571 0.0822714 16.6507 4.36438e-09 16.4354 0H6.82535C6.61006 4.36438e-09 6.40359 0.0822714 6.25135 0.228716C6.09911 0.37516 6.01359 0.573781 6.01359 0.780884C6.01359 0.987987 6.09911 1.18661 6.25135 1.33305C6.40359 1.4795 6.61006 1.56177 6.82535 1.56177H10.8187V2.30538H6.82535C6.61006 2.30538 6.40359 2.38765 6.25135 2.53409C6.09911 2.68054 6.01359 2.87916 6.01359 3.08626V3.73533H4.23268C4.01739 3.73533 3.81091 3.8176 3.65868 3.96405C3.50644 4.11049 3.42092 4.30911 3.42092 4.51622V8.70665H2.30566V4.51622C2.30566 4.30911 2.22014 4.11049 2.0679 3.96405C1.91566 3.8176 1.70919 3.73533 1.49389 3.73533C1.2786 3.73533 1.07213 3.8176 0.91989 3.96405C0.767654 4.11049 0.682129 4.30911 0.682129 4.51622V14.4591C0.682129 14.8904 1.04558 15.2399 1.49389 15.2399C1.94221 15.2399 2.30566 14.8904 2.30566 14.4591V10.2684H3.42092V14.4591C3.42092 14.6662 3.50644 14.8648 3.65868 15.0112C3.81091 15.1577 4.01739 15.2399 4.23268 15.2399H7.38656L10.5912 17.8181C10.7372 17.9356 10.9216 18 11.112 18H19.4085C19.6238 18 19.8302 17.9177 19.9825 17.7713C20.1347 17.6248 20.2202 17.4262 20.2202 17.2191V15.0904H20.8439V16.3214C20.8439 16.5285 20.9294 16.7271 21.0817 16.8736C21.2339 17.02 21.4404 17.1023 21.6557 17.1023H23.6606C23.818 17.1023 23.972 17.0583 24.1038 16.9756C24.2356 16.893 24.3397 16.7753 24.4032 16.6368L25.613 14.0014C25.6586 13.902 25.6821 13.7946 25.6821 13.686V8.41522C25.6821 8.30661 25.6585 8.19919 25.6129 8.09985ZM24.0586 13.5214L23.1318 15.5406H22.4674V14.3096C22.4674 14.1025 22.3819 13.9039 22.2297 13.7575C22.0774 13.611 21.871 13.5288 21.6557 13.5288H19.4085C19.1932 13.5288 18.9867 13.611 18.8345 13.7575C18.6822 13.9039 18.5967 14.1025 18.5967 14.3096V16.4383H11.4066L8.202 13.8602C8.05595 13.7426 7.87159 13.6783 7.68117 13.6783H5.04445V5.2971H6.82535C6.93196 5.2971 7.03752 5.2769 7.136 5.23766C7.23449 5.19842 7.32398 5.1409 7.39936 5.06838C7.47474 4.99587 7.53453 4.90979 7.57533 4.81505C7.61612 4.72031 7.63712 4.61876 7.63712 4.51622V3.86715H15.6237V5.99813C15.6237 6.20523 15.7092 6.40385 15.8615 6.55029C16.0137 6.69674 16.2202 6.77901 16.4355 6.77901H18.5967V7.79187C18.5967 7.99897 18.6822 8.19759 18.8345 8.34404C18.9867 8.49048 19.1932 8.57275 19.4085 8.57275H21.6557C21.871 8.57275 22.0774 8.49048 22.2297 8.34404C22.3819 8.19759 22.4674 7.99897 22.4674 7.79187V6.56078H23.1318L24.0586 8.58004V13.5214Z" fill="#727272"/>
</svg>
